<svg id="Icon" viewBox="0 0 98.655556 125.02499" enable-background="new 0 0 250 250" sodipodi:docname="plant.svg" width="98.655556" height="125.02499" inkscape:version="1.1.1 (3bf5ae0d25, 2021-09-20)" xmlns:inkscape="http://www.inkscape.org/namespaces/inkscape" xmlns:sodipodi="http://sodipodi.sourceforge.net/DTD/sodipodi-0.dtd" xmlns="http://www.w3.org/2000/svg" xmlns:svg="http://www.w3.org/2000/svg"><defs id="defs487" /><sodipodi:namedview id="namedview485" pagecolor="#ffffff" bordercolor="#666666" borderopacity="1" inkscape:pageshadow="2" inkscape:pageopacity="0" inkscape:pagecheckerboard="0" showgrid="false" inkscape:lockguides="false" lock-margins="false" fit-margin-top="0" fit-margin-left="0" fit-margin-right="0" fit-margin-bottom="0" inkscape:zoom="1.988" inkscape:cx="44.517103" inkscape:cy="36.971831" inkscape:window-width="1366" inkscape:window-height="705" inkscape:window-x="-8" inkscape:window-y="-8" inkscape:window-maximized="1" inkscape:current-layer="Icon" /><pattern x="-2105" y="10760" width="69" height="69" patternUnits="userSpaceOnUse" id="Òî_xF7_å_xF7_íûé_óçîð__x22_Ïîëüêà_x22_" viewBox="2.1 -70.9 69 69" overflow="visible"><g id="g479"><path fill="none" d="M71.1-1.9H2.1v-69h69z" id="polygon249" /><path fill="#f7bc60" d="M71.1-1.9H2.1v-69h69z" id="polygon251" /><g id="g271"><path fill="#fff" d="M61.8-71.7c0 .1.0.1.0.2-.1.1-.1.1-.2.1-.1.1-.1.3-.1.4-.2.1.0.2.0.3.0.0.0.1.0.2.0.1.0.3.1.4.1.2.3.4.4.5.2.1.4.6.6.6.2.0.4-.1.5-.1.2.0.4.0.6-.1.2-.1.1-.3.3-.5.1-.1.3.0.4-.1.2-.1.3-.3.4-.5.0-.1.0-.1.0-.2.0-.1.1-.2.1-.3.0-.1-.1-.1-.1-.2.0-.1.0-.2.0-.3.0-.2.0-.4-.1-.5-.4-.7-1.2-.9-2-.8-.2.0-.3.1-.4.2-.2.1-.1.2-.3.2-.1.0-.2.1-.2.2C61.8-71.7 61.8-71.7 61.8-71.7 61.8-71.6 61.8-71.6 61.8-71.7" id="path253" /><path fill="#fff" d="M54.1-71.7c0 .1.0.1.0.2-.1.1-.1.1-.2.1-.1.1-.1.3-.1.4-.2.1.0.2.0.3.0.0.0.1.0.2.0.1.0.3.1.4.1.2.3.4.4.5.2.1.4.6.6.6.2.0.4-.1.5-.1.2.0.4.0.6-.1.2-.1.1-.3.3-.5.1-.1.3.0.4-.1.2-.1.3-.3.4-.5.0-.1.0-.1.0-.2.0-.1.1-.2.1-.3.0-.1-.1-.1-.1-.2.0-.1.0-.2.0-.3.0-.2.0-.4-.1-.5-.4-.7-1.2-.9-2-.8-.2.0-.3.1-.4.2-.2.1-.1.2-.3.2-.1.0-.2.1-.2.2C54.1-71.7 54.1-71.7 54.1-71.7 54.1-71.6 54.1-71.6 54.1-71.7" id="path255" /><path fill="#fff" d="M46.4-71.7c0 .1.0.1.0.2-.1.1-.1.1-.2.1-.1.1-.1.3-.1.4-.2.1.0.2.0.3.0.0.0.1.0.2.0.1.0.3.1.4.1.2.3.4.4.5.2.1.4.6.6.6.2.0.4-.1.5-.1.2.0.4.0.6-.1.2-.1.1-.3.3-.5.1-.1.3.0.4-.1.2-.1.3-.3.4-.5.0-.1.0-.1.0-.2.0-.1.1-.2.1-.3.0-.1-.1-.1-.1-.2.0-.1.0-.2.0-.3.0-.2.0-.4-.1-.5-.4-.7-1.2-.9-2-.8-.2.0-.3.1-.4.2-.2.1-.1.2-.3.2-.1.0-.2.1-.2.2C46.4-71.7 46.4-71.7 46.4-71.7 46.4-71.6 46.4-71.6 46.4-71.7" id="path257" /><path fill="#fff" d="M38.8-71.7c0 .1.0.1.0.2-.1.1-.1.1-.2.1-.1.1-.1.3-.1.4-.2.1.0.2.0.3.0.0.0.1.0.2.0.1.0.3.1.4.1.2.3.4.4.5.2.1.4.6.6.6.2.0.4-.1.5-.1.2.0.4.0.6-.1.2-.1.1-.3.3-.5.1-.1.3.0.4-.1.2-.1.3-.3.4-.5.0-.1.0-.1.0-.2.0-.1.1-.2.1-.3.0-.1-.1-.1-.1-.2.0-.1.0-.2.0-.3.0-.2.0-.4-.1-.5-.4-.7-1.2-.9-2-.8-.2.0-.3.1-.4.2-.2.1-.1.2-.3.2-.1.0-.2.1-.2.2C38.8-71.7 38.8-71.7 38.8-71.7 38.8-71.6 38.8-71.6 38.8-71.7" id="path259" /><path fill="#fff" d="M31.1-71.7c0 .1.0.1.0.2-.1.1-.1.1-.2.1-.1.1-.1.3-.1.4-.2.1.0.2.0.3.0.0.0.1.0.2.0.1.0.3.1.4.1.2.3.4.4.5.2.1.4.6.6.6.2.0.4-.1.5-.1.2.0.4.0.6-.1.2-.1.1-.3.3-.5.1-.1.3.0.4-.1.2-.1.3-.3.4-.5.0-.1.0-.1.0-.2.0-.1.1-.2.1-.3.0-.1-.1-.1-.1-.2.0-.1.0-.2.0-.3.0-.2.0-.4-.1-.5-.4-.7-1.2-.9-2-.8-.2.0-.3.1-.4.2-.2.1-.1.2-.3.2-.1.0-.2.1-.2.2C31.1-71.7 31.1-71.7 31.1-71.7 31.1-71.6 31.1-71.6 31.1-71.7" id="path261" /><path fill="#fff" d="M23.4-71.7c0 .1.0.1.0.2-.1.1-.1.1-.2.1-.1.1-.1.3-.1.4-.2.1.0.2.0.3.0.0.0.1.0.2.0.1.0.3.1.4.1.2.3.4.4.5.2.1.4.6.6.6.2.0.4-.1.5-.1.2.0.4.0.6-.1.2-.1.1-.3.3-.5.1-.1.3.0.4-.1.2-.1.3-.3.4-.5.0-.1.0-.1.0-.2.0-.1.1-.2.1-.3.0-.1-.1-.1-.1-.2.0-.1.0-.2.0-.3.0-.2.0-.4-.1-.5-.4-.7-1.2-.9-2-.8-.2.0-.3.1-.4.2-.2.1-.1.2-.3.2-.1.0-.2.1-.2.2C23.4-71.7 23.4-71.7 23.4-71.7 23.4-71.6 23.4-71.6 23.4-71.7" id="path263" /><path fill="#fff" d="M15.8-71.7c0 .1.0.1.0.2-.1.1-.1.1-.2.1-.1.1-.1.3-.1.4-.2.1.0.2.0.3.0.0.0.1.0.2.0.1.0.3.1.4.1.2.3.4.4.5.2.1.4.6.6.6.2.0.4-.1.5-.1.2.0.4.0.6-.1.2-.1.1-.3.3-.5.1-.1.3.0.4-.1.2-.1.3-.3.4-.5.0-.1.0-.1.0-.2.0-.1.1-.2.1-.3.0-.1-.1-.1-.1-.2.0-.1.0-.2.0-.3.0-.2.0-.4-.1-.5-.4-.7-1.2-.9-2-.8-.2.0-.3.1-.4.2-.2.1-.1.2-.3.2-.1.0-.2.1-.2.2C15.8-71.7 15.8-71.7 15.8-71.7 15.8-71.6 15.8-71.6 15.8-71.7" id="path265" /><path fill="#fff" d="M8.1-71.7c0 .1.0.1.0.2C8-71.4 8-71.4 7.9-71.3c-.1.1-.1.3-.1.4-.2.1.0.2.0.3.0.0.0.1.0.2.0.1.0.3.1.4.1.2.3.4.4.5.2.1.4.6.6.6.2.0.4-.1.5-.1.2.0.4.0.6-.1.2-.1.1-.3.3-.5.1-.1.3.0.4-.1.2-.1.3-.3.4-.5.0-.1.0-.1.0-.2.0-.1.1-.2.1-.3.0-.1-.1-.1-.1-.2.0-.1.0-.2.0-.3.0-.2.0-.4-.1-.5-.4-.7-1.2-.9-2-.8-.2.0-.3.1-.4.2-.2.1-.1.2-.3.2-.1.0-.2.1-.2.2C8.1-71.7 8.1-71.7 8.1-71.7 8.1-71.6 8.1-71.6 8.1-71.7" id="path267" /><path fill="#fff" d="M.4-71.7c0 .1.0.1.0.2-.1.1-.1.1-.2.1-.1.1-.1.3-.1.4-.2.1.0.2.0.3.0.0.0.1.0.2.0.1.0.3.1.4.1.2.3.4.4.5C.8-69.4 1-69 1.2-68.9c.2.0.4-.1.5-.1.2.0.4.0.6-.1.2-.1.1-.3.3-.5.1-.1.3.0.4-.1.2-.1.3-.3.4-.5.0-.1.0-.1.0-.2.0-.1.1-.2.1-.3.0-.1-.1-.1-.1-.2.0-.1.0-.2.0-.3.0-.2.0-.4-.1-.5-.4-.7-1.2-.9-2-.8-.2.0-.3.1-.4.2-.2.1-.1.2-.3.2-.1.0-.2.1-.2.2C.4-71.7.4-71.7.4-71.7.4-71.6.4-71.6.4-71.7" id="path269" /></g><g id="g275"><path fill="#fff" d="M69.4-71.7c0 .1.0.1.0.2-.1.1-.1.1-.2.1-.1.1-.1.3-.1.4-.2.1.0.2.0.3.0.0.0.1.0.2.0.1.0.3.1.4.1.2.3.4.4.5.2.1.4.6.6.6.2.0.4-.1.5-.1.2.0.4.0.6-.1.2-.1.1-.3.3-.5.1-.1.3.0.4-.1.2-.1.3-.3.4-.5.0-.1.0-.1.0-.2.0-.1.1-.2.1-.3.0-.1-.1-.1-.1-.2.0-.1.0-.2.0-.3.0-.2.0-.4-.1-.5-.4-.7-1.2-.9-2-.8-.2.0-.3.1-.4.2-.2.1-.1.2-.3.2-.1.0-.2.1-.2.2C69.4-71.7 69.4-71.7 69.4-71.7 69.4-71.6 69.4-71.6 69.4-71.7" id="path273" /></g><path fill="#fff" d="M.5-71.7c0 .1.0.1.0.2-.1.1-.1.1-.2.1-.1.1-.1.3-.1.4-.2.1.0.2.0.3.0.0.0.1.0.2.0.1.0.3.1.4.1.2.3.4.4.5C.9-69.4 1-69 1.3-68.9c.2.0.4-.1.5-.1.2.0.4.0.6-.1.2-.1.1-.3.3-.5.1-.1.3.0.4-.1.2-.1.3-.3.4-.5.0-.1.0-.1.0-.2.0-.1.1-.2.1-.3.0-.1-.1-.1-.1-.2.0-.1.0-.2.0-.3.0-.2.0-.4-.1-.5-.4-.7-1.2-.9-2-.8-.2.0-.3.1-.4.2-.2.1-.1.2-.3.2-.1.0-.2.1-.2.2C.5-71.7.5-71.7.5-71.7.5-71.6.5-71.6.5-71.7" id="path277" /><g id="g455"><g id="g299"><path fill="#fff" d="M69.4-64c0 .1.0.1.0.2-.1.1-.1.1-.2.1-.1.1-.1.3-.1.4-.2.1.0.2.0.3.0.0.0.1.0.2.0.1.0.3.1.4.1.2.3.4.4.5.2.1.4.6.6.6.2.0.4-.1.5-.1.2.0.4.0.6-.1.2-.1.1-.3.3-.5.1-.1.3.0.4-.1.2-.1.3-.3.4-.5.0-.1.0-.1.0-.2.0-.1.1-.2.1-.3.0-.1-.1-.1-.1-.2.0-.1.0-.2.0-.3.0-.2.0-.4-.1-.5-.4-.7-1.2-.9-2-.8-.2.0-.3.1-.4.2-.2.1-.1.2-.3.2-.1.0-.2.1-.2.2C69.4-64 69.4-64.1 69.4-64c0 0 0 0 0 0" id="path279" /><path fill="#fff" d="M61.8-64c0 .1.0.1.0.2-.1.1-.1.1-.2.1-.1.1-.1.3-.1.4-.2.1.0.2.0.3.0.0.0.1.0.2.0.1.0.3.1.4.1.2.3.4.4.5.2.1.4.6.6.6.2.0.4-.1.5-.1.2.0.4.0.6-.1.2-.1.1-.3.3-.5.1-.1.3.0.4-.1.2-.1.3-.3.4-.5.0-.1.0-.1.0-.2.0-.1.1-.2.1-.3.0-.1-.1-.1-.1-.2.0-.1.0-.2.0-.3.0-.2.0-.4-.1-.5-.4-.7-1.2-.9-2-.8-.2.0-.3.1-.4.2-.2.1-.1.2-.3.2-.1.0-.2.1-.2.2C61.8-64 61.8-64.1 61.8-64c0 0 0 0 0 0" id="path281" /><path fill="#fff" d="M54.1-64c0 .1.0.1.0.2-.1.1-.1.1-.2.1-.1.1-.1.3-.1.4-.2.1.0.2.0.3.0.0.0.1.0.2.0.1.0.3.1.4.1.2.3.4.4.5.2.1.4.6.6.6.2.0.4-.1.5-.1.2.0.4.0.6-.1.2-.1.1-.3.3-.5.1-.1.3.0.4-.1.2-.1.3-.3.4-.5.0-.1.0-.1.0-.2.0-.1.1-.2.1-.3.0-.1-.1-.1-.1-.2.0-.1.0-.2.0-.3.0-.2.0-.4-.1-.5-.4-.7-1.2-.9-2-.8-.2.0-.3.1-.4.2-.2.1-.1.2-.3.2-.1.0-.2.1-.2.2C54.1-64 54.1-64.1 54.1-64c0 0 0 0 0 0" id="path283" /><path fill="#fff" d="M46.5-64c0 .1.0.1.0.2-.1.1-.1.1-.2.1-.1.1-.1.3-.1.4-.2.1.0.2.0.3.0.0.0.1.0.2.0.1.0.3.1.4.1.2.3.4.4.5.2.1.4.6.6.6.2.0.4-.1.5-.1.2.0.4.0.6-.1.2-.1.1-.3.3-.5.1-.1.3.0.4-.1.2-.1.3-.3.4-.5.0-.1.0-.1.0-.2.0-.1.1-.2.1-.3.0-.1-.1-.1-.1-.2.0-.1.0-.2.0-.3.0-.2.0-.4-.1-.5-.4-.7-1.2-.9-2-.8-.2.0-.3.1-.4.2-.2.1-.1.2-.3.2-.1.0-.2.1-.2.2C46.5-64 46.5-64.1 46.5-64c0 0 0 0 0 0" id="path285" /><path fill="#fff" d="M38.8-64c0 .1.0.1.0.2-.1.1-.1.1-.2.1-.1.1-.1.3-.1.4-.2.1.0.2.0.3.0.0.0.1.0.2.0.1.0.3.1.4.1.2.3.4.4.5.2.1.4.6.6.6.2.0.4-.1.5-.1.2.0.4.0.6-.1.2-.1.1-.3.3-.5.1-.1.3.0.4-.1.2-.1.3-.3.4-.5.0-.1.0-.1.0-.2.0-.1.1-.2.1-.3.0-.1-.1-.1-.1-.2.0-.1.0-.2.0-.3.0-.2.0-.4-.1-.5-.4-.7-1.2-.9-2-.8-.2.0-.3.1-.4.2-.2.1-.1.2-.3.2-.1.0-.2.1-.2.2C38.8-64 38.8-64.1 38.8-64c0 0 0 0 0 0" id="path287" /><path fill="#fff" d="M31.1-64c0 .1.0.1.0.2-.1.1-.1.1-.2.1-.1.1-.1.3-.1.4-.2.1.0.2.0.3.0.0.0.1.0.2.0.1.0.3.1.4.1.2.3.4.4.5.2.1.4.6.6.6.2.0.4-.1.5-.1.2.0.4.0.6-.1.2-.1.1-.3.3-.5.1-.1.3.0.4-.1.2-.1.3-.3.4-.5.0-.1.0-.1.0-.2.0-.1.1-.2.1-.3.0-.1-.1-.1-.1-.2.0-.1.0-.2.0-.3.0-.2.0-.4-.1-.5-.4-.7-1.2-.9-2-.8-.2.0-.3.1-.4.2-.2.1-.1.2-.3.2-.1.0-.2.1-.2.2C31.1-64 31.1-64.1 31.1-64c0 0 0 0 0 0" id="path289" /><path fill="#fff" d="M23.5-64c0 .1.0.1.0.2-.1.1-.1.1-.2.1-.1.1-.1.3-.1.4-.2.1.0.2.0.3.0.0.0.1.0.2.0.1.0.3.1.4.1.2.3.4.4.5.2.1.4.6.6.6.2.0.4-.1.5-.1.2.0.4.0.6-.1.2-.1.1-.3.3-.5.1-.1.3.0.4-.1.2-.1.3-.3.4-.5.0-.1.0-.1.0-.2.0-.1.1-.2.1-.3.0-.1-.1-.1-.1-.2.0-.1.0-.2.0-.3.0-.2.0-.4-.1-.5-.4-.7-1.2-.9-2-.8-.2.0-.3.1-.4.2-.2.1-.1.2-.3.2-.1.0-.2.1-.2.2C23.5-64 23.5-64.1 23.5-64c0 0 0 0 0 0" id="path291" /><path fill="#fff" d="M15.8-64c0 .1.0.1.0.2-.1.1-.1.1-.2.1-.1.1-.1.3-.1.4-.2.1.0.2.0.3.0.0.0.1.0.2.0.1.0.3.1.4.1.2.3.4.4.5.2.1.4.6.6.6.2.0.4-.1.5-.1.2.0.4.0.6-.1.2-.1.1-.3.3-.5.1-.1.3.0.4-.1.2-.1.3-.3.4-.5.0-.1.0-.1.0-.2.0-.1.1-.2.1-.3.0-.1-.1-.1-.1-.2.0-.1.0-.2.0-.3.0-.2.0-.4-.1-.5-.4-.7-1.2-.9-2-.8-.2.0-.3.1-.4.2-.2.1-.1.2-.3.2-.1.0-.2.1-.2.2C15.8-64 15.8-64.1 15.8-64c0 0 0 0 0 0" id="path293" /><path fill="#fff" d="M8.2-64c0 .1.0.1.0.2C8.1-63.7 8-63.7 8-63.7c-.1.1-.1.3-.1.4-.2.1.0.2.0.3.0.0.0.1.0.2.0.1.0.3.1.4C8-62.2 8.2-62 8.3-61.9c.2.1.4.6.6.6.2.0.4-.1.5-.1.2.0.4.0.6-.1.2-.1.1-.3.3-.5.1-.1.3.0.4-.1.2-.1.3-.3.4-.5.0-.1.0-.1.0-.2.0-.1.1-.2.1-.3.0-.1-.1-.1-.1-.2.0-.1.0-.2.0-.3.0-.2.0-.4-.1-.5-.4-.7-1.2-.9-2-.8-.2.0-.3.1-.4.2-.2.1-.1.2-.3.2-.1.0-.2.1-.2.2C8.2-64 8.2-64.1 8.2-64 8.1-64 8.1-64 8.2-64" id="path295" /><path fill="#fff" d="M.5-64c0 .1.0.1.0.2-.1.1-.1.1-.2.1-.1.1-.1.3-.1.4-.2.1.0.2.0.3.0.0.0.1.0.2.0.1.0.3.1.4.1.2.3.4.4.5.2.1.4.6.6.6.2.0.4-.1.5-.1.2.0.4.0.6-.1.2-.1.1-.3.3-.5C2.8-62 3-61.9 3.1-62c.2-.1.3-.3.4-.5.0-.1.0-.1.0-.2.0-.1.1-.2.1-.3.0-.1-.1-.1-.1-.2.0-.1.0-.2.0-.3.0-.2.0-.4-.1-.5-.4-.7-1.2-.9-2-.8-.2.0-.3.1-.4.2-.2.1-.1.2-.3.2-.1.0-.2.1-.2.2C.5-64 .5-64.1.5-64c0 0 0 0 0 0" id="path297" /></g><g id="g321"><path fill="#fff" d="M69.4-56.3c0 .1.0.1.0.2-.1.1-.1.1-.2.1-.1.1-.1.3-.1.4-.2.1.0.2.0.3.0.0.0.1.0.2.0.1.0.3.1.4.1.2.3.4.4.5.2.1.4.6.6.6.2.0.4-.1.5-.1.2.0.4.0.6-.1.2-.1.1-.3.3-.5.1-.1.3.0.4-.1.2-.1.3-.3.4-.5.0-.1.0-.1.0-.2.0-.1.1-.2.1-.3.0-.1-.1-.1-.1-.2.0-.1.0-.2.0-.3.0-.2.0-.4-.1-.5-.4-.7-1.2-.9-2-.8-.2.0-.3.1-.4.2-.2.1-.1.2-.3.2-.1.0-.2.1-.2.2C69.4-56.4 69.4-56.4 69.4-56.3c0 0 0 0 0 0" id="path301" /><path fill="#fff" d="M61.8-56.3c0 .1.0.1.0.2-.1.1-.1.1-.2.1-.1.1-.1.3-.1.4-.2.1.0.2.0.3.0.0.0.1.0.2.0.1.0.3.1.4.1.2.3.4.4.5.2.1.4.6.6.6.2.0.4-.1.5-.1.2.0.4.0.6-.1.2-.1.1-.3.3-.5.1-.1.3.0.4-.1.2-.1.3-.3.4-.5.0-.1.0-.1.0-.2.0-.1.1-.2.1-.3.0-.1-.1-.1-.1-.2.0-.1.0-.2.0-.3.0-.2.0-.4-.1-.5-.4-.7-1.2-.9-2-.8-.2.0-.3.1-.4.2-.2.1-.1.2-.3.2-.1.0-.2.1-.2.2C61.8-56.4 61.8-56.4 61.8-56.3c0 0 0 0 0 0" id="path303" /><path fill="#fff" d="M54.1-56.3c0 .1.0.1.0.2C54-56.1 54-56.1 53.9-56c-.1.1-.1.3-.1.4-.2.1.0.2.0.3.0.0.0.1.0.2.0.1.0.3.1.4.1.2.3.4.4.5.2.1.4.6.6.6.2.0.4-.1.5-.1.2.0.4.0.6-.1.2-.1.1-.3.3-.5.1-.1.3.0.4-.1.2-.1.3-.3.4-.5.0-.1.0-.1.0-.2.0-.1.1-.2.1-.3.0-.1-.1-.1-.1-.2.0-.1.0-.2.0-.3.0-.2.0-.4-.1-.5-.4-.7-1.2-.9-2-.8-.2.0-.3.1-.4.2-.2.1-.1.2-.3.2-.1.0-.2.1-.2.2C54.1-56.4 54.1-56.4 54.1-56.3c0 0 0 0 0 0" id="path305" /><path fill="#fff" d="M46.5-56.3c0 .1.0.1.0.2-.1.1-.1.1-.2.1-.1.1-.1.3-.1.4-.2.1.0.2.0.3.0.0.0.1.0.2.0.1.0.3.1.4.1.2.3.4.4.5.2.1.4.6.6.6.2.0.4-.1.5-.1.2.0.4.0.6-.1.2-.1.1-.3.3-.5.1-.1.3.0.4-.1.2-.1.3-.3.4-.5.0-.1.0-.1.0-.2.0-.1.1-.2.1-.3.0-.1-.1-.1-.1-.2.0-.1.0-.2.0-.3.0-.2.0-.4-.1-.5-.4-.7-1.2-.9-2-.8-.2.0-.3.1-.4.2-.2.1-.1.2-.3.2-.1.0-.2.1-.2.2C46.5-56.4 46.5-56.4 46.5-56.3c0 0 0 0 0 0" id="path307" /><path fill="#fff" d="M38.8-56.3c0 .1.0.1.0.2-.1.1-.1.1-.2.1-.1.1-.1.3-.1.4-.2.1.0.2.0.3.0.0.0.1.0.2.0.1.0.3.1.4.1.2.3.4.4.5.2.1.4.6.6.6.2.0.4-.1.5-.1.2.0.4.0.6-.1.2-.1.1-.3.3-.5.1-.1.3.0.4-.1.2-.1.3-.3.4-.5.0-.1.0-.1.0-.2.0-.1.1-.2.1-.3.0-.1-.1-.1-.1-.2.0-.1.0-.2.0-.3.0-.2.0-.4-.1-.5-.4-.7-1.2-.9-2-.8-.2.0-.3.1-.4.2-.2.1-.1.2-.3.2-.1.0-.2.1-.2.2C38.8-56.4 38.8-56.4 38.8-56.3c0 0 0 0 0 0" id="path309" /><path fill="#fff" d="M31.1-56.3c0 .1.0.1.0.2-.1.1-.1.1-.2.1-.1.1-.1.3-.1.4-.2.1.0.2.0.3.0.0.0.1.0.2.0.1.0.3.1.4.1.2.3.4.4.5.2.1.4.6.6.6.2.0.4-.1.5-.1.2.0.4.0.6-.1.2-.1.1-.3.3-.5.1-.1.3.0.4-.1.2-.1.3-.3.4-.5.0-.1.0-.1.0-.2.0-.1.1-.2.1-.3.0-.1-.1-.1-.1-.2.0-.1.0-.2.0-.3.0-.2.0-.4-.1-.5-.4-.7-1.2-.9-2-.8-.2.0-.3.1-.4.2-.2.1-.1.2-.3.2-.1.0-.2.1-.2.2C31.1-56.4 31.1-56.4 31.1-56.3c0 0 0 0 0 0" id="path311" /><path fill="#fff" d="M23.5-56.3c0 .1.0.1.0.2-.1.1-.1.1-.2.1-.1.1-.1.3-.1.4-.2.1.0.2.0.3.0.0.0.1.0.2.0.1.0.3.1.4.1.2.3.4.4.5.2.1.4.6.6.6.2.0.4-.1.5-.1.2.0.4.0.6-.1.2-.1.1-.3.3-.5.1-.1.3.0.4-.1.2-.1.3-.3.4-.5.0-.1.0-.1.0-.2.0-.1.1-.2.1-.3.0-.1-.1-.1-.1-.2.0-.1.0-.2.0-.3.0-.2.0-.4-.1-.5-.4-.7-1.2-.9-2-.8-.2.0-.3.1-.4.2-.2.1-.1.2-.3.2-.1.0-.2.1-.2.2C23.5-56.4 23.5-56.4 23.5-56.3c0 0 0 0 0 0" id="path313" /><path fill="#fff" d="M15.8-56.3c0 .1.0.1.0.2-.1.1-.1.1-.2.1-.1.1-.1.3-.1.4-.2.1.0.2.0.3.0.0.0.1.0.2.0.1.0.3.1.4.1.2.3.4.4.5.2.1.4.6.6.6.2.0.4-.1.5-.1.2.0.4.0.6-.1.2-.1.1-.3.3-.5.1-.1.3.0.4-.1.2-.1.3-.3.4-.5.0-.1.0-.1.0-.2.0-.1.1-.2.1-.3.0-.1-.1-.1-.1-.2.0-.1.0-.2.0-.3.0-.2.0-.4-.1-.5-.4-.7-1.2-.9-2-.8-.2.0-.3.1-.4.2-.2.1-.1.2-.3.2-.1.0-.2.1-.2.2C15.8-56.4 15.8-56.4 15.8-56.3c0 0 0 0 0 0" id="path315" /><path fill="#fff" d="M8.2-56.3c0 .1.0.1.0.2C8.1-56.1 8-56.1 8-56c-.1.1-.1.3-.1.4-.2.1.0.2.0.3.0.0.0.1.0.2.0.1.0.3.1.4.1.2.3.4.4.5.2.1.4.6.6.6.2.0.4-.1.5-.1.2.0.4.0.6-.1.2-.1.1-.3.3-.5.1-.1.3.0.4-.1.2-.1.3-.3.4-.5.0-.1.0-.1.0-.2.0-.1.1-.2.1-.3.0-.1-.1-.1-.1-.2.0-.1.0-.2.0-.3.0-.2.0-.4-.1-.5-.4-.7-1.2-.9-2-.8-.2.0-.3.1-.4.2-.2.1-.1.2-.3.2-.1.0-.2.1-.2.2C8.2-56.4 8.2-56.4 8.2-56.3 8.1-56.3 8.1-56.3 8.2-56.3" id="path317" /><path fill="#fff" d="M.5-56.3c0 .1.0.1.0.2-.1.1-.1.1-.2.1-.1.1-.1.3-.1.4-.2.1.0.2.0.3.0.0.0.1.0.2.0.1.0.3.1.4.1.2.3.4.4.5.2.1.4.6.6.6.2.0.4-.1.5-.1.2.0.4.0.6-.1.2-.1.1-.3.3-.5.1-.1.3.0.4-.1.2-.1.3-.3.4-.5.0-.1.0-.1.0-.2.0-.1.1-.2.1-.3.0-.1-.1-.1-.1-.2.0-.1.0-.2.0-.3.0-.2.0-.4-.1-.5-.4-.7-1.2-.9-2-.8-.2.0-.3.1-.4.2-.2.1-.1.2-.3.2-.1.0-.2.1-.2.2C.5-56.4.5-56.4.5-56.3c0 0 0 0 0 0" id="path319" /></g><g id="g343"><path fill="#fff" d="M69.4-48.7c0 .1.0.1.0.2-.1.1-.1.1-.2.1-.1.1-.1.3-.1.4-.2.1.0.2.0.3.0.0.0.1.0.2.0.1.0.3.1.4.1.2.3.4.4.5.2.1.4.6.6.6.2.0.4-.1.5-.1.2.0.4.0.6-.1.2-.1.1-.3.3-.5.1-.1.3.0.4-.1.2-.1.3-.3.4-.5.0-.1.0-.1.0-.2.0-.1.1-.2.1-.3.0-.1-.1-.1-.1-.2.0-.1.0-.2.0-.3.0-.2.0-.4-.1-.5-.4-.7-1.2-.9-2-.8-.2.0-.3.1-.4.2-.2.1-.1.2-.3.2-.1.0-.2.1-.2.2C69.4-48.7 69.4-48.8 69.4-48.7c0 0 0 0 0 0" id="path323" /><path fill="#fff" d="M61.8-48.7c0 .1.0.1.0.2-.1.1-.1.1-.2.1-.1.1-.1.3-.1.4-.2.1.0.2.0.3.0.0.0.1.0.2.0.1.0.3.1.4.1.2.3.4.4.5.2.1.4.6.6.6.2.0.4-.1.5-.1.2.0.4.0.6-.1.2-.1.1-.3.3-.5.1-.1.3.0.4-.1.2-.1.3-.3.4-.5.0-.1.0-.1.0-.2.0-.1.1-.2.1-.3.0-.1-.1-.1-.1-.2.0-.1.0-.2.0-.3.0-.2.0-.4-.1-.5-.4-.7-1.2-.9-2-.8-.2.0-.3.1-.4.2-.2.1-.1.2-.3.2-.1.0-.2.1-.2.2C61.8-48.7 61.8-48.8 61.8-48.7c0 0 0 0 0 0" id="path325" /><path fill="#fff" d="M54.1-48.7c0 .1.0.1.0.2-.1.1-.1.1-.2.1-.1.1-.1.3-.1.4-.2.1.0.2.0.3.0.0.0.1.0.2.0.1.0.3.1.4.1.2.3.4.4.5.2.1.4.6.6.6.2.0.4-.1.5-.1.2.0.4.0.6-.1.2-.1.1-.3.3-.5.1-.1.3.0.4-.1.2-.1.3-.3.4-.5.0-.1.0-.1.0-.2.0-.1.1-.2.1-.3.0-.1-.1-.1-.1-.2.0-.1.0-.2.0-.3.0-.2.0-.4-.1-.5-.4-.7-1.2-.9-2-.8-.2.0-.3.1-.4.2-.2.1-.1.2-.3.2-.1.0-.2.1-.2.2C54.1-48.7 54.1-48.8 54.1-48.7c0 0 0 0 0 0" id="path327" /><path fill="#fff" d="M46.5-48.7c0 .1.0.1.0.2-.1.1-.1.1-.2.1-.1.1-.1.3-.1.4-.2.1.0.2.0.3.0.0.0.1.0.2.0.1.0.3.1.4.1.2.3.4.4.5.2.1.4.6.6.6.2.0.4-.1.5-.1.2.0.4.0.6-.1.2-.1.1-.3.3-.5.1-.1.3.0.4-.1.2-.1.3-.3.4-.5.0-.1.0-.1.0-.2.0-.1.1-.2.1-.3.0-.1-.1-.1-.1-.2.0-.1.0-.2.0-.3.0-.2.0-.4-.1-.5-.4-.7-1.2-.9-2-.8-.2.0-.3.1-.4.2-.2.1-.1.2-.3.2-.1.0-.2.1-.2.2C46.5-48.7 46.5-48.8 46.5-48.7c0 0 0 0 0 0" id="path329" /><path fill="#fff" d="M38.8-48.7c0 .1.0.1.0.2-.1.1-.1.1-.2.1-.1.1-.1.3-.1.4-.2.1.0.2.0.3.0.0.0.1.0.2.0.1.0.3.1.4.1.2.3.4.4.5.2.1.4.6.6.6.2.0.4-.1.5-.1.2.0.4.0.6-.1.2-.1.1-.3.3-.5.1-.1.3.0.4-.1.2-.1.3-.3.4-.5.0-.1.0-.1.0-.2.0-.1.1-.2.1-.3.0-.1-.1-.1-.1-.2.0-.1.0-.2.0-.3.0-.2.0-.4-.1-.5-.4-.7-1.2-.9-2-.8-.2.0-.3.1-.4.2-.2.1-.1.2-.3.2-.1.0-.2.1-.2.2C38.8-48.7 38.8-48.8 38.8-48.7c0 0 0 0 0 0" id="path331" /><path fill="#fff" d="M31.1-48.7c0 .1.0.1.0.2-.1.1-.1.1-.2.1-.1.1-.1.3-.1.4-.2.1.0.2.0.3.0.0.0.1.0.2.0.1.0.3.1.4.1.2.3.4.4.5.2.1.4.6.6.6.2.0.4-.1.5-.1.2.0.4.0.6-.1.2-.1.1-.3.3-.5.1-.1.3.0.4-.1.2-.1.3-.3.4-.5.0-.1.0-.1.0-.2.0-.1.1-.2.1-.3.0-.1-.1-.1-.1-.2.0-.1.0-.2.0-.3.0-.2.0-.4-.1-.5-.4-.7-1.2-.9-2-.8-.2.0-.3.1-.4.2-.2.1-.1.2-.3.2-.1.0-.2.1-.2.2C31.1-48.7 31.1-48.8 31.1-48.7c0 0 0 0 0 0" id="path333" /><path fill="#fff" d="M23.5-48.7c0 .1.0.1.0.2-.1.1-.1.1-.2.1-.1.1-.1.3-.1.4-.2.1.0.2.0.3.0.0.0.1.0.2.0.1.0.3.1.4.1.2.3.4.4.5.2.1.4.6.6.6.2.0.4-.1.5-.1.2.0.4.0.6-.1.2-.1.1-.3.3-.5.1-.1.3.0.4-.1.2-.1.3-.3.4-.5.0-.1.0-.1.0-.2.0-.1.1-.2.1-.3.0-.1-.1-.1-.1-.2.0-.1.0-.2.0-.3.0-.2.0-.4-.1-.5-.4-.7-1.2-.9-2-.8-.2.0-.3.1-.4.2-.2.1-.1.2-.3.2-.1.0-.2.1-.2.2C23.5-48.7 23.5-48.8 23.5-48.7c0 0 0 0 0 0" id="path335" /><path fill="#fff" d="M15.8-48.7c0 .1.0.1.0.2-.1.1-.1.1-.2.1-.1.1-.1.3-.1.4-.2.1.0.2.0.3.0.0.0.1.0.2.0.1.0.3.1.4.1.2.3.4.4.5.2.1.4.6.6.6.2.0.4-.1.5-.1.2.0.4.0.6-.1.2-.1.1-.3.3-.5.1-.1.3.0.4-.1.2-.1.3-.3.4-.5.0-.1.0-.1.0-.2.0-.1.1-.2.1-.3.0-.1-.1-.1-.1-.2.0-.1.0-.2.0-.3.0-.2.0-.4-.1-.5-.4-.7-1.2-.9-2-.8-.2.0-.3.1-.4.2-.2.1-.1.2-.3.2-.1.0-.2.1-.2.2C15.8-48.7 15.8-48.8 15.8-48.7c0 0 0 0 0 0" id="path337" /><path fill="#fff" d="M8.2-48.7c0 .1.0.1.0.2C8.1-48.4 8-48.4 8-48.4c-.1.1-.1.3-.1.4-.2.1.0.2.0.3.0.0.0.1.0.2.0.1.0.3.1.4.1.2.3.4.4.5C8.5-46.4 8.7-46 8.9-46c.2.0.4-.1.5-.1.2.0.4.0.6-.1.2-.1.1-.3.3-.5.1-.1.3.0.4-.1.2-.1.3-.3.4-.5.0-.1.0-.1.0-.2.0-.1.1-.2.1-.3.0-.1-.1-.1-.1-.2.0-.1.0-.2.0-.3.0-.2.0-.4-.1-.5-.4-.7-1.2-.9-2-.8-.2.0-.3.1-.4.2-.2.1-.1.2-.3.2-.1.0-.2.1-.2.2C8.2-48.7 8.2-48.8 8.2-48.7 8.1-48.7 8.1-48.7 8.2-48.7" id="path339" /><path fill="#fff" d="M.5-48.7c0 .1.0.1.0.2-.1.1-.1.1-.2.1-.1.1-.1.3-.1.4-.2.1.0.2.0.3.0.0.0.1.0.2.0.1.0.3.1.4.1.2.3.4.4.5C.9-46.4 1-46 1.3-46c.2.0.4-.1.5-.1.2.0.4.0.6-.1.2-.1.1-.3.3-.5.1-.1.3.0.4-.1.2-.1.3-.3.4-.5.0-.1.0-.1.0-.2.0-.1.1-.2.1-.3.0-.1-.1-.1-.1-.2.0-.1.0-.2.0-.3.0-.2.0-.4-.1-.5-.4-.7-1.2-.9-2-.8-.2.0-.3.1-.4.2-.2.1-.1.2-.3.2-.1.0-.2.1-.2.2C.5-48.7.5-48.8.5-48.7c0 0 0 0 0 0" id="path341" /></g><g id="g365"><path fill="#fff" d="M69.4-41c0 .1.0.1.0.2-.1.1-.1.1-.2.1-.1.1-.1.3-.1.4-.2.1.0.2.0.3.0.0.0.1.0.2.0.1.0.3.1.4.1.2.3.4.4.5.2.1.4.6.6.6.2.0.4-.1.5-.1.2.0.4.0.6-.1.2-.1.1-.3.3-.5.1-.1.3.0.4-.1.2-.1.3-.3.4-.5.0-.1.0-.1.0-.2.0-.1.1-.2.1-.3.0-.1-.1-.1-.1-.2.0-.1.0-.2.0-.3.0-.2.0-.4-.1-.5-.4-.7-1.2-.9-2-.8-.2.0-.3.1-.4.2-.2.1-.1.2-.3.2-.1.0-.2.1-.2.2C69.4-41.1 69.4-41.1 69.4-41c0 0 0 0 0 0" id="path345" /><path fill="#fff" d="M61.8-41c0 .1.0.1.0.2-.1.1-.1.1-.2.1-.1.1-.1.3-.1.4-.2.1.0.2.0.3.0.0.0.1.0.2.0.1.0.3.1.4.1.2.3.4.4.5.2.1.4.6.6.6.2.0.4-.1.5-.1.2.0.4.0.6-.1.2-.1.1-.3.3-.5.1-.1.3.0.4-.1.2-.1.3-.3.4-.5.0-.1.0-.1.0-.2.0-.1.1-.2.1-.3.0-.1-.1-.1-.1-.2.0-.1.0-.2.0-.3.0-.2.0-.4-.1-.5-.4-.7-1.2-.9-2-.8-.2.0-.3.1-.4.2-.2.1-.1.2-.3.2-.1.0-.2.1-.2.2C61.8-41.1 61.8-41.1 61.8-41c0 0 0 0 0 0" id="path347" /><path fill="#fff" d="M54.1-41c0 .1.0.1.0.2-.1.1-.1.1-.2.1-.1.1-.1.3-.1.4-.2.1.0.2.0.3.0.0.0.1.0.2.0.1.0.3.1.4.1.2.3.4.4.5.2.1.4.6.6.6.2.0.4-.1.5-.1.2.0.4.0.6-.1.2-.1.1-.3.3-.5.1-.1.3.0.4-.1.2-.1.3-.3.4-.5.0-.1.0-.1.0-.2.0-.1.1-.2.1-.3.0-.1-.1-.1-.1-.2.0-.1.0-.2.0-.3.0-.2.0-.4-.1-.5-.4-.7-1.2-.9-2-.8-.2.0-.3.1-.4.2-.2.1-.1.2-.3.2-.1.0-.2.1-.2.2C54.1-41.1 54.1-41.1 54.1-41c0 0 0 0 0 0" id="path349" /><path fill="#fff" d="M46.5-41c0 .1.0.1.0.2-.1.1-.1.1-.2.1-.1.1-.1.3-.1.4-.2.1.0.2.0.3.0.0.0.1.0.2.0.1.0.3.1.4.1.2.3.4.4.5.2.1.4.6.6.6.2.0.4-.1.5-.1.2.0.4.0.6-.1.2-.1.1-.3.3-.5.1-.1.3.0.4-.1.2-.1.3-.3.4-.5.0-.1.0-.1.0-.2.0-.1.1-.2.1-.3.0-.1-.1-.1-.1-.2.0-.1.0-.2.0-.3.0-.2.0-.4-.1-.5-.4-.7-1.2-.9-2-.8-.2.0-.3.1-.4.2-.2.1-.1.2-.3.2-.1.0-.2.1-.2.2C46.5-41.1 46.5-41.1 46.5-41c0 0 0 0 0 0" id="path351" /><path fill="#fff" d="M38.8-41c0 .1.0.1.0.2-.1.1-.1.1-.2.1-.1.1-.1.3-.1.4-.2.1.0.2.0.3.0.0.0.1.0.2.0.1.0.3.1.4.1.2.3.4.4.5.2.1.4.6.6.6.2.0.4-.1.5-.1.2.0.4.0.6-.1.2-.1.1-.3.3-.5.1-.1.3.0.4-.1.2-.1.3-.3.4-.5.0-.1.0-.1.0-.2.0-.1.1-.2.1-.3.0-.1-.1-.1-.1-.2.0-.1.0-.2.0-.3.0-.2.0-.4-.1-.5-.4-.7-1.2-.9-2-.8-.2.0-.3.1-.4.2-.2.1-.1.2-.3.2-.1.0-.2.1-.2.2C38.8-41.1 38.8-41.1 38.8-41c0 0 0 0 0 0" id="path353" /><path fill="#fff" d="M31.1-41c0 .1.0.1.0.2-.1.1-.1.1-.2.1-.1.1-.1.3-.1.4-.2.1.0.2.0.3.0.0.0.1.0.2.0.1.0.3.1.4.1.2.3.4.4.5.2.1.4.6.6.6.2.0.4-.1.5-.1.2.0.4.0.6-.1.2-.1.1-.3.3-.5.1-.1.3.0.4-.1.2-.1.3-.3.4-.5.0-.1.0-.1.0-.2.0-.1.1-.2.1-.3.0-.1-.1-.1-.1-.2.0-.1.0-.2.0-.3.0-.2.0-.4-.1-.5-.4-.7-1.2-.9-2-.8-.2.0-.3.1-.4.2-.2.1-.1.2-.3.2-.1.0-.2.1-.2.2C31.1-41.1 31.1-41.1 31.1-41c0 0 0 0 0 0" id="path355" /><path fill="#fff" d="M23.5-41c0 .1.0.1.0.2-.1.1-.1.1-.2.1-.1.1-.1.3-.1.4-.2.1.0.2.0.3.0.0.0.1.0.2.0.1.0.3.1.4.1.2.3.4.4.5.2.1.4.6.6.6.2.0.4-.1.5-.1.2.0.4.0.6-.1.2-.1.1-.3.3-.5.1-.1.3.0.4-.1.2-.1.3-.3.4-.5.0-.1.0-.1.0-.2.0-.1.1-.2.1-.3.0-.1-.1-.1-.1-.2.0-.1.0-.2.0-.3.0-.2.0-.4-.1-.5-.4-.7-1.2-.9-2-.8-.2.0-.3.1-.4.2-.2.1-.1.2-.3.2-.1.0-.2.1-.2.2C23.5-41.1 23.5-41.1 23.5-41c0 0 0 0 0 0" id="path357" /><path fill="#fff" d="M15.8-41c0 .1.0.1.0.2-.1.1-.1.1-.2.1-.1.1-.1.3-.1.4-.2.1.0.2.0.3.0.0.0.1.0.2.0.1.0.3.1.4.1.2.3.4.4.5.2.1.4.6.6.6.2.0.4-.1.5-.1.2.0.4.0.6-.1.2-.1.1-.3.3-.5.1-.1.3.0.4-.1.2-.1.3-.3.4-.5.0-.1.0-.1.0-.2.0-.1.1-.2.1-.3.0-.1-.1-.1-.1-.2.0-.1.0-.2.0-.3.0-.2.0-.4-.1-.5-.4-.7-1.2-.9-2-.8-.2.0-.3.1-.4.2-.2.1-.1.2-.3.2-.1.0-.2.1-.2.2C15.8-41.1 15.8-41.1 15.8-41c0 0 0 0 0 0" id="path359" /><path fill="#fff" d="M8.2-41c0 .1.0.1.0.2C8.1-40.8 8-40.8 8-40.7c-.1.1-.1.3-.1.4-.2.1.0.2.0.3.0.0.0.1.0.2.0.1.0.3.1.4.1.2.3.4.4.5.2.1.4.6.6.6.2.0.4-.1.5-.1.2.0.4.0.6-.1.2-.1.1-.3.3-.5.1-.1.3.0.4-.1.2-.1.3-.3.4-.5.0-.1.0-.1.0-.2.0-.1.1-.2.1-.3.0-.1-.1-.1-.1-.2.0-.1.0-.2.0-.3.0-.2.0-.4-.1-.5-.4-.7-1.2-.9-2-.8-.2.0-.3.1-.4.2-.2.1-.1.2-.3.2-.1.0-.2.1-.2.2C8.2-41.1 8.2-41.1 8.2-41 8.1-41 8.1-41 8.2-41" id="path361" /><path fill="#fff" d="M.5-41c0 .1.0.1.0.2-.1.1-.1.1-.2.1-.1.1-.1.3-.1.4-.2.1.0.2.0.3.0.0.0.1.0.2.0.1.0.3.1.4.1.2.3.4.4.5.2.1.4.6.6.6.2.0.4-.1.5-.1.2.0.4.0.6-.1.2-.1.1-.3.3-.5C2.8-39 3-39 3.1-39c.2-.1.3-.3.4-.5.0-.1.0-.1.0-.2.0-.1.1-.2.1-.3.0-.1-.1-.1-.1-.2.0-.1.0-.2.0-.3.0-.2.0-.4-.1-.5-.4-.7-1.2-.9-2-.8-.2.0-.3.1-.4.2-.2.1-.1.2-.3.2-.1.0-.2.1-.2.2C.5-41.1.5-41.1.5-41c0 0 0 0 0 0" id="path363" /></g><g id="g387"><path fill="#fff" d="M69.4-33.4c0 .1.0.1.0.2-.1.1-.1.1-.2.1-.1.1-.1.3-.1.4-.2.1.0.2.0.3.0.0.0.1.0.2.0.1.0.3.1.4.1.2.3.4.4.5.2.1.4.6.6.6.2.0.4-.1.5-.1.2.0.4.0.6-.1.2-.1.1-.3.3-.5.1-.1.3.0.4-.1.2-.1.3-.3.4-.5.0-.1.0-.1.0-.2.0-.1.1-.2.1-.3.0-.1-.1-.1-.1-.2.0-.1.0-.2.0-.3.0-.2.0-.4-.1-.5-.4-.7-1.2-.9-2-.8-.2.0-.3.1-.4.2-.2.1-.1.2-.3.2-.1.0-.2.1-.2.2C69.4-33.4 69.4-33.5 69.4-33.4c0 0 0 0 0 0" id="path367" /><path fill="#fff" d="M61.8-33.4c0 .1.0.1.0.2-.1.1-.1.1-.2.1-.1.1-.1.3-.1.4-.2.1.0.2.0.3.0.0.0.1.0.2.0.1.0.3.1.4.1.2.3.4.4.5.2.1.4.6.6.6.2.0.4-.1.5-.1.2.0.4.0.6-.1.2-.1.1-.3.3-.5.1-.1.3.0.4-.1.2-.1.3-.3.4-.5.0-.1.0-.1.0-.2.0-.1.1-.2.1-.3.0-.1-.1-.1-.1-.2.0-.1.0-.2.0-.3.0-.2.0-.4-.1-.5-.4-.7-1.2-.9-2-.8-.2.0-.3.1-.4.2-.2.1-.1.2-.3.2-.1.0-.2.1-.2.2C61.8-33.4 61.8-33.5 61.8-33.4c0 0 0 0 0 0" id="path369" /><path fill="#fff" d="M54.1-33.4c0 .1.0.1.0.2-.1.1-.1.1-.2.1-.1.1-.1.3-.1.4-.2.1.0.2.0.3.0.0.0.1.0.2.0.1.0.3.1.4.1.2.3.4.4.5.2.1.4.6.6.6.2.0.4-.1.5-.1.2.0.4.0.6-.1.2-.1.1-.3.3-.5.1-.1.3.0.4-.1.2-.1.3-.3.4-.5.0-.1.0-.1.0-.2.0-.1.1-.2.1-.3.0-.1-.1-.1-.1-.2.0-.1.0-.2.0-.3.0-.2.0-.4-.1-.5-.4-.7-1.2-.9-2-.8-.2.0-.3.1-.4.2-.2.1-.1.2-.3.2-.1.0-.2.1-.2.2C54.1-33.4 54.1-33.5 54.1-33.4c0 0 0 0 0 0" id="path371" /><path fill="#fff" d="M46.5-33.4c0 .1.0.1.0.2-.1.1-.1.1-.2.1-.1.1-.1.3-.1.4-.2.1.0.2.0.3.0.0.0.1.0.2.0.1.0.3.1.4.1.2.3.4.4.5.2.1.4.6.6.6.2.0.4-.1.5-.1.2.0.4.0.6-.1.2-.1.1-.3.3-.5.1-.1.3.0.4-.1.2-.1.3-.3.4-.5.0-.1.0-.1.0-.2.0-.1.1-.2.1-.3.0-.1-.1-.1-.1-.2.0-.1.0-.2.0-.3.0-.2.0-.4-.1-.5-.4-.7-1.2-.9-2-.8-.2.0-.3.1-.4.2-.2.1-.1.2-.3.2-.1.0-.2.1-.2.2C46.5-33.4 46.5-33.5 46.5-33.4c0 0 0 0 0 0" id="path373" /><path fill="#fff" d="M38.8-33.4c0 .1.0.1.0.2-.1.1-.1.1-.2.1-.1.1-.1.3-.1.4-.2.1.0.2.0.3.0.0.0.1.0.2.0.1.0.3.1.4.1.2.3.4.4.5.2.1.4.6.6.6.2.0.4-.1.5-.1.2.0.4.0.6-.1.2-.1.1-.3.3-.5.1-.1.3.0.4-.1.2-.1.3-.3.4-.5.0-.1.0-.1.0-.2.0-.1.1-.2.1-.3.0-.1-.1-.1-.1-.2.0-.1.0-.2.0-.3.0-.2.0-.4-.1-.5-.4-.7-1.2-.9-2-.8-.2.0-.3.1-.4.2-.2.1-.1.2-.3.2-.1.0-.2.1-.2.2C38.8-33.4 38.8-33.5 38.8-33.4c0 0 0 0 0 0" id="path375" /><path fill="#fff" d="M31.1-33.4c0 .1.0.1.0.2-.1.1-.1.1-.2.1-.1.1-.1.3-.1.4-.2.1.0.2.0.3.0.0.0.1.0.2.0.1.0.3.1.4.1.2.3.4.4.5.2.1.4.6.6.6.2.0.4-.1.5-.1.2.0.4.0.6-.1.2-.1.1-.3.3-.5.1-.1.3.0.4-.1.2-.1.3-.3.4-.5.0-.1.0-.1.0-.2.0-.1.1-.2.1-.3.0-.1-.1-.1-.1-.2.0-.1.0-.2.0-.3.0-.2.0-.4-.1-.5-.4-.7-1.2-.9-2-.8-.2.0-.3.1-.4.2-.2.1-.1.2-.3.2-.1.0-.2.1-.2.2C31.1-33.4 31.1-33.5 31.1-33.4c0 0 0 0 0 0" id="path377" /><path fill="#fff" d="M23.5-33.4c0 .1.0.1.0.2-.1.1-.1.1-.2.1-.1.1-.1.3-.1.4-.2.1.0.2.0.3.0.0.0.1.0.2.0.1.0.3.1.4.1.2.3.4.4.5.2.1.4.6.6.6.2.0.4-.1.5-.1.2.0.4.0.6-.1.2-.1.1-.3.3-.5.1-.1.3.0.4-.1.2-.1.3-.3.4-.5.0-.1.0-.1.0-.2.0-.1.1-.2.1-.3.0-.1-.1-.1-.1-.2.0-.1.0-.2.0-.3.0-.2.0-.4-.1-.5-.4-.7-1.2-.9-2-.8-.2.0-.3.1-.4.2-.2.1-.1.2-.3.2-.1.0-.2.1-.2.2C23.5-33.4 23.5-33.5 23.5-33.4c0 0 0 0 0 0" id="path379" /><path fill="#fff" d="M15.8-33.4c0 .1.0.1.0.2-.1.1-.1.1-.2.1-.1.1-.1.3-.1.4-.2.1.0.2.0.3.0.0.0.1.0.2.0.1.0.3.1.4.1.2.3.4.4.5.2.1.4.6.6.6.2.0.4-.1.5-.1.2.0.4.0.6-.1.2-.1.1-.3.3-.5.1-.1.3.0.4-.1.2-.1.3-.3.4-.5.0-.1.0-.1.0-.2.0-.1.1-.2.1-.3.0-.1-.1-.1-.1-.2.0-.1.0-.2.0-.3.0-.2.0-.4-.1-.5-.4-.7-1.2-.9-2-.8-.2.0-.3.1-.4.2-.2.1-.1.2-.3.2-.1.0-.2.1-.2.2C15.8-33.4 15.8-33.5 15.8-33.4c0 0 0 0 0 0" id="path381" /><path fill="#fff" d="M8.2-33.4c0 .1.0.1.0.2C8.1-33.1 8-33.1 8-33.1c-.1.1-.1.3-.1.4-.2.1.0.2.0.3.0.0.0.1.0.2.0.1.0.3.1.4.1.2.3.4.4.5.2.1.4.6.6.6.2.0.4-.1.5-.1.2.0.4.0.6-.1.2-.1.1-.3.3-.5.1-.1.3.0.4-.1.2-.1.3-.3.4-.5.0-.1.0-.1.0-.2.0-.1.1-.2.1-.3.0-.1-.1-.1-.1-.2.0-.1.0-.2.0-.3.0-.2.0-.4-.1-.5-.4-.7-1.2-.9-2-.8-.2.0-.3.1-.4.2-.2.1-.1.2-.3.2-.1.0-.2.1-.2.2C8.2-33.4 8.2-33.5 8.2-33.4 8.1-33.4 8.1-33.4 8.2-33.4" id="path383" /><path fill="#fff" d="M.5-33.4c0 .1.0.1.0.2-.1.1-.1.1-.2.1-.1.1-.1.3-.1.4-.2.1.0.2.0.3.0.0.0.1.0.2.0.1.0.3.1.4.1.2.3.4.4.5.2.1.4.6.6.6.2.0.4-.1.5-.1.2.0.4.0.6-.1.2-.1.1-.3.3-.5.1-.1.3.0.4-.1.2-.1.3-.3.4-.5.0-.1.0-.1.0-.2.0-.1.1-.2.1-.3.0-.1-.1-.1-.1-.2.0-.1.0-.2.0-.3.0-.2.0-.4-.1-.5-.4-.7-1.2-.9-2-.8-.2.0-.3.1-.4.2-.2.1-.1.2-.3.2-.1.0-.2.1-.2.2C.5-33.4.5-33.5.5-33.4c0 0 0 0 0 0" id="path385" /></g><g id="g409"><path fill="#fff" d="M69.4-25.7c0 .1.0.1.0.2-.1.1-.1.1-.2.1-.1.1-.1.3-.1.4-.2.1.0.2.0.3.0.0.0.1.0.2.0.1.0.3.1.4.1.2.3.4.4.5.2.1.4.6.6.6.2.0.4-.1.5-.1.2.0.4.0.6-.1.2-.1.1-.3.3-.5.1-.1.3.0.4-.1.2-.1.3-.3.4-.5.0-.1.0-.1.0-.2.0-.1.1-.2.1-.3.0-.1-.1-.1-.1-.2.0-.1.0-.2.0-.3.0-.2.0-.4-.1-.5-.4-.7-1.2-.9-2-.8-.2.0-.3.1-.4.2-.2.1-.1.2-.3.2-.1.0-.2.1-.2.2C69.4-25.8 69.4-25.8 69.4-25.7c0 0 0 0 0 0" id="path389" /><path fill="#fff" d="M61.8-25.7c0 .1.0.1.0.2-.1.1-.1.1-.2.1-.1.1-.1.3-.1.4-.2.1.0.2.0.3.0.0.0.1.0.2.0.1.0.3.1.4.1.2.3.4.4.5.2.1.4.6.6.6.2.0.4-.1.5-.1.2.0.4.0.6-.1.2-.1.1-.3.3-.5.1-.1.3.0.4-.1.2-.1.3-.3.4-.5.0-.1.0-.1.0-.2.0-.1.1-.2.1-.3.0-.1-.1-.1-.1-.2.0-.1.0-.2.0-.3.0-.2.0-.4-.1-.5-.4-.7-1.2-.9-2-.8-.2.0-.3.1-.4.2-.2.1-.1.2-.3.2-.1.0-.2.1-.2.2C61.8-25.8 61.8-25.8 61.8-25.7c0 0 0 0 0 0" id="path391" /><path fill="#fff" d="M54.1-25.7c0 .1.0.1.0.2-.1.1-.1.1-.2.1-.1.1-.1.3-.1.4-.2.1.0.2.0.3.0.0.0.1.0.2.0.1.0.3.1.4.1.2.3.4.4.5.2.1.4.6.6.6.2.0.4-.1.5-.1.2.0.4.0.6-.1.2-.1.1-.3.3-.5.1-.1.3.0.4-.1.2-.1.3-.3.4-.5.0-.1.0-.1.0-.2.0-.1.1-.2.1-.3.0-.1-.1-.1-.1-.2.0-.1.0-.2.0-.3.0-.2.0-.4-.1-.5-.4-.7-1.2-.9-2-.8-.2.0-.3.1-.4.2-.2.1-.1.2-.3.2-.1.0-.2.1-.2.2C54.1-25.8 54.1-25.8 54.1-25.7c0 0 0 0 0 0" id="path393" /><path fill="#fff" d="M46.5-25.7c0 .1.0.1.0.2-.1.1-.1.1-.2.1-.1.1-.1.3-.1.4-.2.1.0.2.0.3.0.0.0.1.0.2.0.1.0.3.1.4.1.2.3.4.4.5.2.1.4.6.6.6.2.0.4-.1.5-.1.2.0.4.0.6-.1.2-.1.1-.3.3-.5.1-.1.3.0.4-.1.2-.1.3-.3.4-.5.0-.1.0-.1.0-.2.0-.1.1-.2.1-.3.0-.1-.1-.1-.1-.2.0-.1.0-.2.0-.3.0-.2.0-.4-.1-.5-.4-.7-1.2-.9-2-.8-.2.0-.3.1-.4.2-.2.1-.1.2-.3.2-.1.0-.2.1-.2.2C46.5-25.8 46.5-25.8 46.5-25.7c0 0 0 0 0 0" id="path395" /><path fill="#fff" d="M38.8-25.7c0 .1.0.1.0.2-.1.1-.1.1-.2.1-.1.1-.1.3-.1.4-.2.1.0.2.0.3.0.0.0.1.0.2.0.1.0.3.1.4.1.2.3.4.4.5.2.1.4.6.6.6.2.0.4-.1.5-.1.2.0.4.0.6-.1.2-.1.1-.3.3-.5.1-.1.3.0.4-.1.2-.1.3-.3.4-.5.0-.1.0-.1.0-.2.0-.1.1-.2.1-.3.0-.1-.1-.1-.1-.2.0-.1.0-.2.0-.3.0-.2.0-.4-.1-.5-.4-.7-1.2-.9-2-.8-.2.0-.3.1-.4.2-.2.1-.1.2-.3.2-.1.0-.2.1-.2.2C38.8-25.8 38.8-25.8 38.8-25.7c0 0 0 0 0 0" id="path397" /><path fill="#fff" d="M31.1-25.7c0 .1.0.1.0.2-.1.1-.1.1-.2.1-.1.1-.1.3-.1.4-.2.1.0.2.0.3.0.0.0.1.0.2.0.1.0.3.1.4.1.2.3.4.4.5.2.1.4.6.6.6.2.0.4-.1.5-.1.2.0.4.0.6-.1.2-.1.1-.3.3-.5.1-.1.3.0.4-.1.2-.1.3-.3.4-.5.0-.1.0-.1.0-.2.0-.1.1-.2.1-.3.0-.1-.1-.1-.1-.2.0-.1.0-.2.0-.3.0-.2.0-.4-.1-.5-.4-.7-1.2-.9-2-.8-.2.0-.3.1-.4.2-.2.1-.1.2-.3.2-.1.0-.2.1-.2.2C31.1-25.8 31.1-25.8 31.1-25.7c0 0 0 0 0 0" id="path399" /><path fill="#fff" d="M23.5-25.7c0 .1.0.1.0.2-.1.1-.1.1-.2.1-.1.1-.1.3-.1.4-.2.1.0.2.0.3.0.0.0.1.0.2.0.1.0.3.1.4.1.2.3.4.4.5.2.1.4.6.6.6.2.0.4-.1.5-.1.2.0.4.0.6-.1.2-.1.1-.3.3-.5.1-.1.3.0.4-.1.2-.1.3-.3.4-.5.0-.1.0-.1.0-.2.0-.1.1-.2.1-.3.0-.1-.1-.1-.1-.2.0-.1.0-.2.0-.3.0-.2.0-.4-.1-.5-.4-.7-1.2-.9-2-.8-.2.0-.3.1-.4.2-.2.1-.1.2-.3.2-.1.0-.2.1-.2.2C23.5-25.8 23.5-25.8 23.5-25.7c0 0 0 0 0 0" id="path401" /><path fill="#fff" d="M15.8-25.7c0 .1.0.1.0.2-.1.1-.1.1-.2.1-.1.1-.1.3-.1.4-.2.1.0.2.0.3.0.0.0.1.0.2.0.1.0.3.1.4.1.2.3.4.4.5.2.1.4.6.6.6.2.0.4-.1.5-.1.2.0.4.0.6-.1.2-.1.1-.3.3-.5.1-.1.3.0.4-.1.2-.1.3-.3.4-.5.0-.1.0-.1.0-.2.0-.1.1-.2.1-.3.0-.1-.1-.1-.1-.2.0-.1.0-.2.0-.3.0-.2.0-.4-.1-.5-.4-.7-1.2-.9-2-.8-.2.0-.3.1-.4.2-.2.1-.1.2-.3.2-.1.0-.2.1-.2.2C15.8-25.8 15.8-25.8 15.8-25.7c0 0 0 0 0 0" id="path403" /><path fill="#fff" d="M8.2-25.7c0 .1.0.1.0.2C8.1-25.4 8-25.5 8-25.4c-.1.1-.1.3-.1.4-.2.1.0.2.0.3.0.0.0.1.0.2.0.1.0.3.1.4C8-24 8.2-23.8 8.3-23.6c.2.1.4.6.6.6.2.0.4-.1.5-.1.2.0.4.0.6-.1.2-.1.1-.3.3-.5.1-.1.3.0.4-.1.2-.1.3-.3.4-.5.0-.1.0-.1.0-.2.0-.1.1-.2.1-.3.0-.1-.1-.1-.1-.2.0-.1.0-.2.0-.3.0-.2.0-.4-.1-.5-.4-.7-1.2-.9-2-.8-.2.0-.3.1-.4.2-.2.1-.1.2-.3.2-.1.0-.2.1-.2.2C8.2-25.8 8.2-25.8 8.2-25.7 8.1-25.7 8.1-25.7 8.2-25.7" id="path405" /><path fill="#fff" d="M.5-25.7c0 .1.0.1.0.2-.1.1-.1.1-.2.1-.1.1-.1.3-.1.4-.2.1.0.2.0.3.0.0.0.1.0.2.0.1.0.3.1.4.1.2.3.4.4.5C.9-23.5 1-23.1 1.3-23c.2.0.4-.1.5-.1.2.0.4.0.6-.1.2-.1.1-.3.3-.5.1-.1.3.0.4-.1.2-.1.3-.3.4-.5.0-.1.0-.1.0-.2.0-.1.1-.2.1-.3.0-.1-.1-.1-.1-.2.0-.1.0-.2.0-.3.0-.2.0-.4-.1-.5-.4-.7-1.2-.9-2-.8-.2.0-.3.1-.4.2-.2.1-.1.2-.3.2-.1.0-.2.1-.2.2C.5-25.8.5-25.8.5-25.7c0 0 0 0 0 0" id="path407" /></g><g id="g431"><path fill="#fff" d="M69.4-18.1c0 .1.0.1.0.2-.1.1-.1.1-.2.1-.1.1-.1.3-.1.4-.2.1.0.2.0.3.0.0.0.1.0.2.0.1.0.3.1.4.1.2.3.4.4.5.2.1.4.6.6.6.2.0.4-.1.5-.1.2.0.4.0.6-.1.2-.1.1-.3.3-.5.1-.1.3.0.4-.1.2-.1.3-.3.4-.5.0-.1.0-.1.0-.2.0-.1.1-.2.1-.3.0-.1-.1-.1-.1-.2.0-.1.0-.2.0-.3.0-.2.0-.4-.1-.5-.4-.7-1.2-.9-2-.8-.2.0-.3.1-.4.2-.2.1-.1.2-.3.2-.1.0-.2.1-.2.2C69.4-18.1 69.4-18.2 69.4-18.1 69.4-18 69.4-18.1 69.4-18.1" id="path411" /><path fill="#fff" d="M61.8-18.1c0 .1.0.1.0.2-.1.1-.1.1-.2.1-.1.1-.1.3-.1.4-.2.1.0.2.0.3.0.0.0.1.0.2.0.1.0.3.1.4.1.2.3.4.4.5.2.1.4.6.6.6.2.0.4-.1.5-.1.2.0.4.0.6-.1.2-.1.1-.3.3-.5.1-.1.3.0.4-.1.2-.1.3-.3.4-.5.0-.1.0-.1.0-.2.0-.1.1-.2.1-.3.0-.1-.1-.1-.1-.2.0-.1.0-.2.0-.3.0-.2.0-.4-.1-.5-.4-.7-1.2-.9-2-.8-.2.0-.3.1-.4.2-.2.1-.1.2-.3.2-.1.0-.2.1-.2.2C61.8-18.1 61.8-18.2 61.8-18.1 61.8-18 61.8-18.1 61.8-18.1" id="path413" /><path fill="#fff" d="M54.1-18.1c0 .1.0.1.0.2-.1.1-.1.1-.2.1-.1.1-.1.3-.1.4-.2.1.0.2.0.3.0.0.0.1.0.2.0.1.0.3.1.4.1.2.3.4.4.5.2.1.4.6.6.6.2.0.4-.1.5-.1.2.0.4.0.6-.1.2-.1.1-.3.3-.5.1-.1.3.0.4-.1.2-.1.3-.3.4-.5.0-.1.0-.1.0-.2.0-.1.1-.2.1-.3.0-.1-.1-.1-.1-.2.0-.1.0-.2.0-.3.0-.2.0-.4-.1-.5-.4-.7-1.2-.9-2-.8-.2.0-.3.1-.4.2-.2.1-.1.2-.3.2-.1.0-.2.1-.2.2C54.1-18.1 54.1-18.2 54.1-18.1 54.1-18 54.1-18.1 54.1-18.1" id="path415" /><path fill="#fff" d="M46.5-18.1c0 .1.0.1.0.2-.1.1-.1.1-.2.1-.1.1-.1.3-.1.4-.2.1.0.2.0.3.0.0.0.1.0.2.0.1.0.3.1.4.1.2.3.4.4.5.2.1.4.6.6.6.2.0.4-.1.5-.1.2.0.4.0.6-.1.2-.1.1-.3.3-.5.1-.1.3.0.4-.1.2-.1.3-.3.4-.5.0-.1.0-.1.0-.2.0-.1.1-.2.1-.3.0-.1-.1-.1-.1-.2.0-.1.0-.2.0-.3.0-.2.0-.4-.1-.5-.4-.7-1.2-.9-2-.8-.2.0-.3.1-.4.2-.2.1-.1.2-.3.2-.1.0-.2.1-.2.2C46.5-18.1 46.5-18.2 46.5-18.1 46.5-18 46.5-18.1 46.5-18.1" id="path417" /><path fill="#fff" d="M38.8-18.1c0 .1.0.1.0.2-.1.1-.1.1-.2.1-.1.1-.1.3-.1.4-.2.1.0.2.0.3.0.0.0.1.0.2.0.1.0.3.1.4.1.2.3.4.4.5.2.1.4.6.6.6.2.0.4-.1.5-.1.2.0.4.0.6-.1.2-.1.1-.3.3-.5.1-.1.3.0.4-.1.2-.1.3-.3.4-.5.0-.1.0-.1.0-.2.0-.1.1-.2.1-.3.0-.1-.1-.1-.1-.2.0-.1.0-.2.0-.3.0-.2.0-.4-.1-.5-.4-.7-1.2-.9-2-.8-.2.0-.3.1-.4.2-.2.1-.1.2-.3.2-.1.0-.2.1-.2.2C38.8-18.1 38.8-18.2 38.8-18.1 38.8-18 38.8-18.1 38.8-18.1" id="path419" /><path fill="#fff" d="M31.1-18.1c0 .1.0.1.0.2-.1.1-.1.1-.2.1-.1.1-.1.3-.1.4-.2.1.0.2.0.3.0.0.0.1.0.2.0.1.0.3.1.4.1.2.3.4.4.5.2.1.4.6.6.6.2.0.4-.1.5-.1.2.0.4.0.6-.1.2-.1.1-.3.3-.5.1-.1.3.0.4-.1.2-.1.3-.3.4-.5.0-.1.0-.1.0-.2.0-.1.1-.2.1-.3.0-.1-.1-.1-.1-.2.0-.1.0-.2.0-.3.0-.2.0-.4-.1-.5-.4-.7-1.2-.9-2-.8-.2.0-.3.1-.4.2-.2.1-.1.2-.3.2-.1.0-.2.1-.2.2C31.1-18.1 31.1-18.2 31.1-18.1 31.1-18 31.1-18.1 31.1-18.1" id="path421" /><path fill="#fff" d="M23.5-18.1c0 .1.0.1.0.2-.1.1-.1.1-.2.1-.1.1-.1.3-.1.4-.2.1.0.2.0.3.0.0.0.1.0.2.0.1.0.3.1.4.1.2.3.4.4.5.2.1.4.6.6.6.2.0.4-.1.5-.1.2.0.4.0.6-.1.2-.1.1-.3.3-.5.1-.1.3.0.4-.1.2-.1.3-.3.4-.5.0-.1.0-.1.0-.2.0-.1.1-.2.1-.3.0-.1-.1-.1-.1-.2.0-.1.0-.2.0-.3.0-.2.0-.4-.1-.5-.4-.7-1.2-.9-2-.8-.2.0-.3.1-.4.2-.2.1-.1.2-.3.2-.1.0-.2.1-.2.2C23.5-18.1 23.5-18.2 23.5-18.1 23.5-18 23.5-18.1 23.5-18.1" id="path423" /><path fill="#fff" d="M15.8-18.1c0 .1.0.1.0.2-.1.1-.1.1-.2.1-.1.1-.1.3-.1.4-.2.1.0.2.0.3.0.0.0.1.0.2.0.1.0.3.1.4.1.2.3.4.4.5.2.1.4.6.6.6.2.0.4-.1.5-.1.2.0.4.0.6-.1.2-.1.1-.3.3-.5.1-.1.3.0.4-.1.2-.1.3-.3.4-.5.0-.1.0-.1.0-.2.0-.1.1-.2.1-.3.0-.1-.1-.1-.1-.2.0-.1.0-.2.0-.3.0-.2.0-.4-.1-.5-.4-.7-1.2-.9-2-.8-.2.0-.3.1-.4.2-.2.1-.1.2-.3.2-.1.0-.2.1-.2.2C15.8-18.1 15.8-18.2 15.8-18.1 15.8-18 15.8-18.1 15.8-18.1" id="path425" /><path fill="#fff" d="M8.2-18.1c0 .1.0.1.0.2C8.1-17.8 8-17.8 8-17.8c-.1.1-.1.3-.1.4-.2.1.0.2.0.3.0.0.0.1.0.2.0.1.0.3.1.4C8-16.3 8.2-16.1 8.3-16c.2.1.4.6.6.6.2.0.4-.1.5-.1.2.0.4.0.6-.1.2-.1.1-.3.3-.5.1-.1.3.0.4-.1.2-.1.3-.3.4-.5.0-.1.0-.1.0-.2.0-.1.1-.2.1-.3.0-.1-.1-.1-.1-.2.0-.1.0-.2.0-.3.0-.2.0-.4-.1-.5-.4-.7-1.2-.9-2-.8-.2.0-.3.1-.4.2-.2.1-.1.2-.3.2-.1.0-.2.1-.2.2C8.2-18.1 8.2-18.2 8.2-18.1 8.1-18 8.1-18.1 8.2-18.1" id="path427" /><path fill="#fff" d="M.5-18.1c0 .1.0.1.0.2-.1.1-.1.1-.2.1-.1.1-.1.3-.1.4-.2.1.0.2.0.3.0.0.0.1.0.2.0.1.0.3.1.4.1.2.3.4.4.5.2.1.4.6.6.6.2.0.4-.1.5-.1.2.0.4.0.6-.1.2-.1.1-.3.3-.5C2.8-16.1 3-16 3.1-16c.2-.1.3-.3.4-.5.0-.1.0-.1.0-.2.0-.1.1-.2.1-.3.0-.1-.1-.1-.1-.2.0-.1.0-.2.0-.3.0-.2.0-.4-.1-.5-.4-.7-1.2-.9-2-.8-.2.0-.3.1-.4.2-.2.1-.1.2-.3.2-.1.0-.2.1-.2.2C.5-18.1.5-18.2.5-18.1.5-18 .5-18.1.5-18.1" id="path429" /></g><g id="g453"><path fill="#fff" d="M69.4-10.4c0 .1.0.1.0.2-.1.1-.1.1-.2.1-.1.1-.1.3-.1.4-.2.1.0.2.0.3.0.0.0.1.0.2.0.1.0.3.1.4.1.2.3.4.4.5.2.1.4.6.6.6.2.0.4-.1.5-.1.2.0.4.0.6-.1.2-.1.1-.3.3-.5.1-.1.3.0.4-.1.2-.1.3-.3.4-.5.0-.1.0-.1.0-.2.0-.1.1-.2.1-.3.0-.1-.1-.1-.1-.2.0-.1.0-.2.0-.3.0-.2.0-.4-.1-.5-.4-.7-1.2-.9-2-.8-.2.0-.3.1-.4.2-.2.1-.1.2-.3.2-.1.0-.2.1-.2.2C69.4-10.5 69.4-10.5 69.4-10.4c0 0 0 0 0 0" id="path433" /><path fill="#fff" d="M61.8-10.4c0 .1.0.1.0.2-.1.1-.1.1-.2.1-.1.1-.1.3-.1.4-.2.1.0.2.0.3.0.0.0.1.0.2.0.1.0.3.1.4.1.2.3.4.4.5.2.1.4.6.6.6.2.0.4-.1.5-.1.2.0.4.0.6-.1C63.9-8 63.8-8.2 64-8.3c.1-.1.3.0.4-.1.2-.1.3-.3.4-.5.0-.1.0-.1.0-.2.0-.1.1-.2.1-.3.0-.1-.1-.1-.1-.2.0-.1.0-.2.0-.3.0-.2.0-.4-.1-.5-.4-.7-1.2-.9-2-.8-.2.0-.3.1-.4.2-.2.1-.1.2-.3.2-.1.0-.2.1-.2.2C61.8-10.5 61.8-10.5 61.8-10.4c0 0 0 0 0 0" id="path435" /><path fill="#fff" d="M54.1-10.4c0 .1.0.1.0.2-.1.1-.1.1-.2.1-.1.1-.1.3-.1.4-.2.1.0.2.0.3.0.0.0.1.0.2.0.1.0.3.1.4.1.2.3.4.4.5.2.1.4.6.6.6.2.0.4-.1.5-.1.2.0.4.0.6-.1.2-.1.1-.3.3-.5.1-.1.3.0.4-.1.2-.1.3-.3.4-.5.0-.1.0-.1.0-.2.0-.1.1-.2.1-.3.0-.1-.1-.1-.1-.2.0-.1.0-.2.0-.3.0-.2.0-.4-.1-.5-.4-.7-1.2-.9-2-.8-.2.0-.3.1-.4.2-.2.1-.1.2-.3.2-.1.0-.2.1-.2.2C54.1-10.5 54.1-10.5 54.1-10.4c0 0 0 0 0 0" id="path437" /><path fill="#fff" d="M46.5-10.4c0 .1.0.1.0.2-.1.1-.1.1-.2.1-.1.1-.1.3-.1.4-.2.1.0.2.0.3.0.0.0.1.0.2.0.1.0.3.1.4.1.2.3.4.4.5.2.1.4.6.6.6.2.0.4-.1.5-.1.2.0.4.0.6-.1.2-.1.1-.3.3-.5.1-.1.3.0.4-.1.2-.1.3-.3.4-.5.0-.1.0-.1.0-.2.0-.1.1-.2.1-.3.0-.1-.1-.1-.1-.2.0-.1.0-.2.0-.3.0-.2.0-.4-.1-.5-.4-.7-1.2-.9-2-.8-.2.0-.3.1-.4.2-.2.1-.1.2-.3.2-.1.0-.2.1-.2.2C46.5-10.5 46.5-10.5 46.5-10.4c0 0 0 0 0 0" id="path439" /><path fill="#fff" d="M38.8-10.4c0 .1.0.1.0.2-.1.1-.1.1-.2.1-.1.1-.1.3-.1.4-.2.1.0.2.0.3.0.0.0.1.0.2.0.1.0.3.1.4.1.2.3.4.4.5.2.1.4.6.6.6.2.0.4-.1.5-.1.2.0.4.0.6-.1C40.9-8 40.8-8.2 41-8.3c.1-.1.3.0.4-.1.2-.1.3-.3.4-.5.0-.1.0-.1.0-.2.0-.1.1-.2.1-.3.0-.1-.1-.1-.1-.2.0-.1.0-.2.0-.3.0-.2.0-.4-.1-.5-.4-.7-1.2-.9-2-.8-.2.0-.3.1-.4.2-.2.1-.1.2-.3.2-.1.0-.2.1-.2.2C38.8-10.5 38.8-10.5 38.8-10.4c0 0 0 0 0 0" id="path441" /><path fill="#fff" d="M31.1-10.4c0 .1.0.1.0.2-.1.1-.1.1-.2.1-.1.1-.1.3-.1.4-.2.1.0.2.0.3.0.0.0.1.0.2.0.1.0.3.1.4.1.2.3.4.4.5.2.1.4.6.6.6.2.0.4-.1.5-.1.2.0.4.0.6-.1.2-.1.1-.3.3-.5.1-.1.3.0.4-.1.2-.1.3-.3.4-.5.0-.1.0-.1.0-.2.0-.1.1-.2.1-.3.0-.1-.1-.1-.1-.2.0-.1.0-.2.0-.3.0-.2.0-.4-.1-.5-.4-.7-1.2-.9-2-.8-.2.0-.3.1-.4.2-.2.1-.1.2-.3.2-.1.0-.2.1-.2.2C31.1-10.5 31.1-10.5 31.1-10.4c0 0 0 0 0 0" id="path443" /><path fill="#fff" d="M23.5-10.4c0 .1.0.1.0.2-.1.1-.1.1-.2.1-.1.1-.1.3-.1.4-.2.1.0.2.0.3.0.0.0.1.0.2.0.1.0.3.1.4.1.2.3.4.4.5.2.1.4.6.6.6.2.0.4-.1.5-.1.2.0.4.0.6-.1.2-.1.1-.3.3-.5.1-.1.3.0.4-.1.2-.1.3-.3.4-.5.0-.1.0-.1.0-.2.0-.1.1-.2.1-.3.0-.1-.1-.1-.1-.2.0-.1.0-.2.0-.3.0-.2.0-.4-.1-.5-.4-.7-1.2-.9-2-.8-.2.0-.3.1-.4.2-.2.1-.1.2-.3.2-.1.0-.2.1-.2.2C23.5-10.5 23.5-10.5 23.5-10.4c0 0 0 0 0 0" id="path445" /><path fill="#fff" d="M15.8-10.4c0 .1.0.1.0.2-.1.1-.1.1-.2.1-.1.1-.1.3-.1.4-.2.1.0.2.0.3.0.0.0.1.0.2.0.1.0.3.1.4.1.2.3.4.4.5.2.1.4.6.6.6.2.0.4-.1.5-.1.2.0.4.0.6-.1C17.9-8 17.8-8.2 18-8.3c.1-.1.3.0.4-.1.2-.1.3-.3.4-.5.0-.1.0-.1.0-.2.0-.1.1-.2.1-.3.0-.1-.1-.1-.1-.2.0-.1.0-.2.0-.3.0-.2.0-.4-.1-.5-.4-.7-1.2-.9-2-.8-.2.0-.3.1-.4.2-.2.1-.1.2-.3.2-.1.0-.2.1-.2.2C15.8-10.5 15.8-10.5 15.8-10.4c0 0 0 0 0 0" id="path447" /><path fill="#fff" d="M8.2-10.4c0 .1.0.1.0.2C8.1-10.1 8-10.2 8-10.1 7.9-10 7.9-9.8 7.9-9.8c-.2.1.0.2.0.3.0.0.0.1.0.2.0.1.0.3.1.4C8-8.7 8.2-8.5 8.3-8.3c.2.1.4.6.6.6.2.0.4-.1.5-.1.2.0.4.0.6-.1.2-.1.1-.3.3-.5.1-.1.3.0.4-.1.2-.1.3-.3.4-.5.0-.1.0-.1.0-.2.0-.1.1-.2.1-.3.0-.1-.1-.1-.1-.2.0-.1.0-.2.0-.3.0-.2.0-.4-.1-.5-.4-.7-1.2-.9-2-.8-.2.0-.3.1-.4.2-.2.1-.1.2-.3.2-.1.0-.2.1-.2.2C8.2-10.5 8.2-10.5 8.2-10.4 8.1-10.4 8.1-10.4 8.2-10.4" id="path449" /><path fill="#fff" d="M.5-10.4c0 .1.0.1.0.2-.1.1-.1.1-.2.1C.3-10 .2-9.8.2-9.8c-.2.1.0.2.0.3.0.0.0.1.0.2.0.1.0.3.1.4.1.2.3.4.4.5C.9-8.2 1-7.8 1.3-7.7c.2.0.4-.1.5-.1.2.0.4.0.6-.1C2.6-8 2.5-8.2 2.7-8.3c.1-.1.3.0.4-.1.2-.1.3-.3.4-.5.0-.1.0-.1.0-.2.0-.1.1-.2.1-.3.0-.1-.1-.1-.1-.2.0-.1.0-.2.0-.3.0-.2.0-.4-.1-.5-.4-.7-1.2-.9-2-.8-.2.0-.3.1-.4.2-.2.1-.1.2-.3.2-.1.0-.2.1-.2.2C.5-10.5.5-10.5.5-10.4c0 0 0 0 0 0" id="path451" /></g></g><g id="g477"><path fill="#fff" d="M69.4-2.8c0 .1.0.1.0.2-.1.1-.1.1-.2.1-.1.1-.1.3-.1.4-.2.1.0.2.0.3.0.0.0.1.0.2.0.1.0.3.1.4.1.2.3.4.4.5C69.8-.5 70-.1 70.2.0c.2.0.4-.1.5-.1.2.0.4.0.6-.1.2-.1.1-.3.3-.5.1-.1.3.0.4-.1.2-.1.3-.3.4-.5.0-.1.0-.1.0-.2.0-.1.1-.2.1-.3.0-.1-.1-.1-.1-.2.0-.1.0-.2.0-.3.0-.2.0-.4-.1-.5-.4-.7-1.2-.9-2-.8-.2.0-.3.1-.4.2-.2.1-.1.2-.3.2-.1.0-.2.1-.2.2C69.4-2.8 69.4-2.9 69.4-2.8 69.4-2.7 69.4-2.8 69.4-2.8" id="path457" /><path fill="#fff" d="M61.8-2.8c0 .1.0.1.0.2-.1.1-.1.1-.2.1-.1.1-.1.3-.1.4-.2.1.0.2.0.3.0.0.0.1.0.2.0.1.0.3.1.4C61.6-1 61.8-.8 62-.7c.2.1.4.6.6.6.2.0.4-.1.5-.1.2.0.4.0.6-.1.2-.1.1-.3.3-.5.1-.1.3.0.4-.1.2-.1.3-.3.4-.5.0-.1.0-.1.0-.2.0-.1.1-.2.1-.3.0-.1-.1-.1-.1-.2.0-.1.0-.2.0-.3.0-.2.0-.4-.1-.5-.4-.7-1.2-.9-2-.8-.2.0-.3.1-.4.2-.2.1-.1.2-.3.2-.1.0-.2.1-.2.2C61.8-2.8 61.8-2.9 61.8-2.8 61.8-2.7 61.8-2.8 61.8-2.8" id="path459" /><path fill="#fff" d="M54.1-2.8c0 .1.0.1.0.2C54-2.5 54-2.5 53.9-2.5c-.1.1-.1.3-.1.4-.2.1.0.2.0.3.0.0.0.1.0.2.0.1.0.3.1.4C54-1 54.1-.8 54.3-.7c.2.1.4.6.6.6.2.0.4-.1.5-.1.2.0.4.0.6-.1.2-.1.1-.3.3-.5.1-.1.3.0.4-.1C56.9-.8 57-1 57.1-1.2c0-.1.0-.1.0-.2.0-.1.1-.2.1-.3.0-.1-.1-.1-.1-.2.0-.1.0-.2.0-.3.0-.2.0-.4-.1-.5-.4-.7-1.2-.9-2-.8-.2.0-.3.1-.4.2-.2.1-.1.2-.3.2-.1.0-.2.1-.2.2C54.1-2.8 54.1-2.9 54.1-2.8 54.1-2.7 54.1-2.8 54.1-2.8" id="path461" /><path fill="#fff" d="M46.5-2.8c0 .1.0.1.0.2-.1.1-.1.1-.2.1-.1.1-.1.3-.1.4-.2.1.0.2.0.3.0.0.0.1.0.2.0.1.0.3.1.4.1.2.3.4.4.5C46.8-.5 47-.1 47.2.0c.2.0.4-.1.5-.1.2.0.4.0.6-.1.2-.1.1-.3.3-.5.1-.1.3.0.4-.1.2-.1.3-.3.4-.5.0-.1.0-.1.0-.2.0-.1.1-.2.1-.3.0-.1-.1-.1-.1-.2.0-.1.0-.2.0-.3.0-.2.0-.4-.1-.5-.4-.7-1.2-.9-2-.8-.2.0-.3.1-.4.2-.2.1-.1.2-.3.2-.1.0-.2.1-.2.2C46.5-2.8 46.5-2.9 46.5-2.8 46.5-2.7 46.5-2.8 46.5-2.8" id="path463" /><path fill="#fff" d="M38.8-2.8c0 .1.0.1.0.2-.1.1-.1.1-.2.1-.1.1-.1.3-.1.4-.2.1.0.2.0.3.0.0.0.1.0.2.0.1.0.3.1.4C38.6-1 38.8-.8 39-.7c.2.1.4.6.6.6.2.0.4-.1.5-.1.2.0.4.0.6-.1.2-.1.1-.3.3-.5.1-.1.3.0.4-.1.2-.1.3-.3.4-.5.0-.1.0-.1.0-.2.0-.1.1-.2.1-.3.0-.1-.1-.1-.1-.2.0-.1.0-.2.0-.3.0-.2.0-.4-.1-.5-.4-.7-1.2-.9-2-.8-.2.0-.3.1-.4.2-.2.1-.1.2-.3.2-.1.0-.2.1-.2.2C38.8-2.8 38.8-2.9 38.8-2.8 38.8-2.7 38.8-2.8 38.8-2.8" id="path465" /><path fill="#fff" d="M31.1-2.8c0 .1.0.1.0.2-.1.1-.1.1-.2.1-.1.1-.1.3-.1.4-.2.1.0.2.0.3.0.0.0.1.0.2.0.1.0.3.1.4C31-1 31.1-.8 31.3-.7c.2.1.4.6.6.6.2.0.4-.1.5-.1.2.0.4.0.6-.1.2-.1.1-.3.3-.5.1-.1.3.0.4-.1.2-.1.3-.3.4-.5.0-.1.0-.1.0-.2.0-.1.1-.2.1-.3.0-.1-.1-.1-.1-.2.0-.1.0-.2.0-.3.0-.2.0-.4-.1-.5-.4-.7-1.2-.9-2-.8-.2.0-.3.1-.4.2-.2.1-.1.2-.3.2-.1.0-.2.1-.2.2C31.1-2.8 31.1-2.9 31.1-2.8 31.1-2.7 31.1-2.8 31.1-2.8" id="path467" /><path fill="#fff" d="M23.5-2.8c0 .1.0.1.0.2-.1.1-.1.1-.2.1-.1.1-.1.3-.1.4-.2.1.0.2.0.3.0.0.0.1.0.2.0.1.0.3.1.4.1.2.3.4.4.5C23.8-.5 24-.1 24.3.0c.2.0.4-.1.5-.1.2.0.4.0.6-.1.2-.1.1-.3.3-.5.1-.1.3.0.4-.1.2-.1.3-.3.4-.5.0-.1.0-.1.0-.2.0-.1.1-.2.1-.3.0-.1-.1-.1-.1-.2.0-.1.0-.2.0-.3.0-.2.0-.4-.1-.5-.4-.7-1.2-.9-2-.8-.2.0-.3.1-.4.2-.2.1-.1.2-.3.2-.1.0-.2.1-.2.2C23.5-2.8 23.5-2.9 23.5-2.8 23.5-2.7 23.5-2.8 23.5-2.8" id="path469" /><path fill="#fff" d="M15.8-2.8c0 .1.0.1.0.2-.1.1-.1.1-.2.1-.1.1-.1.3-.1.4-.2.1.0.2.0.3.0.0.0.1.0.2.0.1.0.3.1.4C15.7-1 15.8-.8 16-.7c.2.1.4.6.6.6.2.0.4-.1.5-.1.2.0.4.0.6-.1.2-.1.1-.3.3-.5.1-.1.3.0.4-.1.2-.1.3-.3.4-.5.0-.1.0-.1.0-.2.0-.1.1-.2.1-.3.0-.1-.1-.1-.1-.2.0-.1.0-.2.0-.3.0-.2.0-.4-.1-.5-.4-.7-1.2-.9-2-.8-.2.0-.3.1-.4.2-.2.1-.1.2-.3.2-.1.0-.2.1-.2.2C15.8-2.8 15.8-2.9 15.8-2.8 15.8-2.7 15.8-2.8 15.8-2.8" id="path471" /><path fill="#fff" d="M8.2-2.8c0 .1.0.1.0.2C8.1-2.5 8-2.5 8-2.5 7.9-2.4 7.9-2.2 7.9-2.1c-.2.1.0.2.0.3.0.0.0.1.0.2.0.1.0.3.1.4C8-1 8.2-.8 8.3-.7 8.5-.5 8.7-.1 8.9.0c.2.0.4-.1.5-.1.2.0.4.0.6-.1.2-.1.1-.3.3-.5.1-.1.3.0.4-.1.2-.1.3-.3.4-.5.0-.1.0-.1.0-.2.0-.1.1-.2.1-.3.0-.1-.1-.1-.1-.2.0-.1.0-.2.0-.3.0-.2.0-.4-.1-.5-.4-.7-1.2-.9-2-.8C9-3.5 8.8-3.4 8.7-3.4 8.5-3.3 8.6-3.2 8.4-3.1 8.3-3.1 8.2-3 8.2-2.9 8.2-2.8 8.2-2.9 8.2-2.8 8.1-2.7 8.1-2.8 8.2-2.8" id="path473" /><path fill="#fff" d="M.5-2.8c0 .1.0.1.0.2C.4-2.5.4-2.5.3-2.5.3-2.4.2-2.2.2-2.1c-.2.1.0.2.0.3.0.0.0.1.0.2.0.1.0.3.1.4C.3-1 .5-.8.7-.7.9-.5 1-.1 1.3.0c.2.0.4-.1.5-.1.2.0.4.0.6-.1.2-.1.1-.3.3-.5.1-.1.3.0.4-.1C3.3-.8 3.4-1 3.5-1.2c0-.1.0-.1.0-.2.0-.1.1-.2.1-.3.0-.1-.1-.1-.1-.2.0-.1.0-.2.0-.3.0-.2.0-.4-.1-.5-.4-.7-1.2-.9-2-.8C1.3-3.5 1.2-3.4 1-3.4.9-3.3.9-3.2.7-3.1.6-3.1.5-3 .5-2.9.5-2.8.5-2.9.5-2.8.5-2.7.5-2.8.5-2.8" id="path475" /></g></g></pattern><path fill="#141414" d="m98.377769 41.924996c-.29999-.6-.99999-.9-1.69999-.9h-.1c-1.5.1-5.5.3-11.6 1.299997-6 1-17 3.2-23.4 6.899995-5.8 3.5-7.69999 8-8.19998 11.3-.60001 3.9.29999 7.9 2.49999 11-2.10001 3.400001-3.60001 7.000001-4.8 10.600001V49.724988c3-.4 5.8-1.699995 8-3.899995 4.9-4.899997 7.59999-11.399989 7.59999-18.399993.0-6.9-2.69999-13.5-7.59999-18.4l-8.5-8.5c-.7-.7-1.8-.7-2.50001.0l-8.49998 8.5c-10.1 10.1-10.1 26.600004.0 36.799993 2.2 2.2 4.99999 3.499995 7.99999 3.899995v32.400001c-1.2-3.6-2.70001-7.2-4.8-10.600001 2.2-3.2 3.1-7.2 2.5-11-.50001-3.2-2.40001-7.8-8.20001-11.3-6.4-3.799995-17.399998-5.999995-23.399998-6.899995C7.5777778 41.324996 3.4777878 41.124996 2.0777878 41.024996h-.10001c-.7.0-1.30000002.3-1.70000002.9-.5.799997-.5.799997 1.50000002 5.499997.7 1.699995 2.1 4.999995 3.7 8.899995 3.8 8.8 6.2000032 14.1 7.3000032 15.5 3.1 4.300001 7.299998 6.700001 12.199998 7.200001.6.1 1.1.1 1.70002.1 4.69999.0 9.49999-1.8 13.59998-5 4.6 7.9 6.5 17.8 7.1 25-2.29999.5-4.39999 2.000001-5.99999 4.100001-1.10001-.5-2.3-.7-3.6-.7-4.6.0-8.6 3.4-10.30001 8.6-3 .3-5.8 2.2-7.7 5.1-1.199998 1.9-1.299998 4.3-.199998 6.3.899998 1.6 2.299998 2.5 3.899998 2.5h51.70001c1.59999.0 2.99999-.9 3.9-2.5 1.1-2 1-4.4-.2-6.3-1.9-3-4.70001-4.8-7.70001-5.1-1.69998-5.2-5.69999-8.6-10.29999-8.6-1.20001.0-2.4.2-3.6.7-1.6-2.1-3.70001-3.500001-6.00001-4.100001.6-7.2 2.60001-17.1 7.1-25 4.00001 3.2 8.90001 5 13.60001 5 .59999.0 1.1.0 1.7-.1 4.89999-.5 9.09999-3 12.20001-7.200001 1.09998-1.5 3.49999-6.7 7.29998-15.5 1.70001-3.9 3.00001-7.2 3.70001-8.899995 1.99999-4.7 1.99999-4.7 1.49999-5.499997zm-56.29999 1.399997c-8.7-8.699989-8.7-22.899993.0-31.699993l7.2-7.2 7.19999 7.2c4.20001 4.2 6.60001 9.9 6.60001 15.8.0 6.000004-2.29999 11.599996-6.60001 15.799993-1.49999 1.5-3.4 2.5-5.39999 2.8V30.025c0-1-.80001-1.8-1.8-1.8-1 0-1.8.8-1.8 1.8v15.999993c-2.00001-.2-3.90001-1.2-5.4-2.7zm-16.90002 32.199996c-3.89999-.4-7.199988-2.4-9.599988-5.700001-1.7-2.4-8.4999932-18.5-11.1000032-24.999995 2.00001.2 4.9.5 8.6000032 1.1 5.8.9 16.299998 2.999995 22.200008 6.499995 4.60001 2.8 6.1 6.3 6.50001 8.8.39998 2.4.0 4.8-1.00001 6.9-3.30001-5.5-8.50001-11.7-17.90001-16.2-.9-.4-2 0-2.4.9-.4.9.0 2 .9 2.4 9.20001 4.4 13.90001 10.4 17 16-3.99998 3.100001-8.89998 4.800001-13.20001 4.300001zm30.00001 31.000001c.20001.4.70001.7 1.10002.8.49998.1.99999.0 1.39998-.2 1-.7 2.10001-1 3.20001-1 3.20001.0 6.19999 3 7.19999 7.2.20001.8 1.00001 1.4 1.9 1.4.0999.0.20001.0.3.0 2.10002.0 4.2 1.3 5.60001 3.5.49999.8.4 2 0 2.6-.0999.1-.40001.6-.7.6h-51.70001c-.4.0-.7-.5-.7-.6-.4-.7-.5-1.8.0-2.6 1.4-2.2 3.5-3.5 5.59999-3.5.1.0.20002.0.29999.0.90004.0 1.70003-.5 1.90003-1.4.99999-4.2 3.89999-7.2 7.2-7.2 1.1.0 2.19999.3 3.2 1 .4.3.9.4 1.40001.2.49998-.1.89999-.4 1.09998-.8 1.4-2.5 3.6-4 5.9-4 2.2.1 4.30001 1.5 5.8 4zm27.90002-36.700002c-2.40001 3.400001-5.80001 5.400001-9.60003 5.700001-4.29998.4-9.19998-1.3-13.09998-4.400001 3.2-5.5 7.80001-11.6 16.99999-16 .9-.4 1.3-1.5.9-2.4-.39999-.9-1.5-1.3-2.39999-.9-9.40001 4.5-14.5 10.7-17.9 16.2-1-2.1-1.39999-4.6-1-6.9.39999-2.5 1.9-6 6.5-8.8 5.89999-3.5 16.39999-5.599995 22.19999-6.499995 3.70001-.6 6.60001-.9 8.6-1.1-2.7 6.599995-9.5 22.699995-11.19998 25.099995z" id="path482" style="stroke-width:1" /></svg>